<?xml version="1.0" standalone="no"?>
<!DOCTYPE svg PUBLIC "-//W3C//DTD SVG 20010904//EN"
 "http://www.w3.org/TR/2001/REC-SVG-20010904/DTD/svg10.dtd">
<svg version="1.0" xmlns="http://www.w3.org/2000/svg"
 width="22.000000pt" height="22.000000pt" viewBox="0 0 22.000000 22.000000"
 preserveAspectRatio="xMidYMid meet">

<g transform="translate(0.000000,22.000000) scale(0.100000,-0.100000)"
fill="#000000" stroke="none">
<path d="M59 173 c-11 -36 -20 -49 -37 -51 -32 -5 -27 -22 7 -22 25 0 31 5 36
30 4 17 10 30 14 30 5 0 18 -36 31 -80 13 -44 26 -80 30 -80 3 0 13 21 21 48
11 35 20 48 37 50 32 5 27 22 -7 22 -25 0 -31 -5 -36 -30 -4 -16 -10 -30 -14
-30 -5 0 -18 36 -31 80 -13 44 -26 80 -30 80 -3 0 -13 -21 -21 -47z"/>
</g>
</svg>
